<?xml version="1.0" standalone="no"?>
<!DOCTYPE svg PUBLIC "-//W3C//DTD SVG 20010904//EN"
 "http://www.w3.org/TR/2001/REC-SVG-20010904/DTD/svg10.dtd">
<svg version="1.0" xmlns="http://www.w3.org/2000/svg"
 width="270.000000pt" height="270.000000pt" viewBox="0 0 270.000000 270.000000"
 preserveAspectRatio="xMidYMid meet">
<metadata>
Created by potrace 1.11, written by Peter Selinger 2001-2013
</metadata>
<g transform="translate(0.000000,270.000000) scale(0.100000,-0.100000)"
fill="#000000" stroke="none">
<path d="M0 1350 l0 -1350 1350 0 1350 0 0 1350 0 1350 -1350 0 -1350 0 0
-1350z m2217 257 c98 -52 153 -140 153 -247 -1 -154 -116 -265 -275 -264 -56
0 -80 5 -121 26 -170 89 -203 299 -67 430 62 60 115 79 203 75 44 -2 88 -11
107 -20z m-1452 -52 l0 -60 -130 -5 -130 -5 -3 -32 -3 -32 108 -3 108 -3 3
-54 c2 -37 -1 -57 -10 -62 -7 -5 -57 -9 -110 -9 -98 0 -98 0 -98 -25 l0 -25
123 0 c82 0 127 -4 135 -12 13 -13 16 -96 4 -116 -7 -9 -54 -12 -203 -10
l-194 3 -3 245 c-1 134 0 250 3 258 3 10 48 12 202 10 l198 -3 0 -60z m235 6
c22 -33 44 -62 49 -65 5 -3 28 23 51 59 l42 65 79 0 c44 0 79 -2 79 -5 0 -3
-36 -60 -81 -126 -44 -66 -78 -126 -76 -133 3 -7 39 -63 81 -123 42 -61 76
-116 76 -122 0 -8 -24 -11 -77 -9 l-77 3 -44 63 c-24 34 -47 62 -50 62 -4 0
-27 -29 -51 -65 l-44 -65 -80 0 c-68 0 -78 2 -73 16 3 9 40 65 81 124 41 60
75 114 75 122 0 7 -28 56 -63 108 -35 52 -72 107 -81 123 l-18 27 80 0 81 0
41 -59z m691 36 c82 -44 122 -164 83 -255 -16 -39 -56 -87 -89 -105 -11 -6
-58 -14 -105 -17 l-85 -5 -5 -55 -5 -55 -65 0 -65 0 -3 245 c-1 134 0 250 3
257 3 10 41 13 148 13 131 0 148 -2 188 -23z"/>
<path d="M2041 1482 c-70 -35 -97 -110 -65 -177 23 -50 66 -75 128 -75 43 0
53 4 87 39 35 34 39 44 39 87 0 61 -28 110 -75 130 -45 18 -73 18 -114 -4z"/>
<path d="M1494 1491 c-2 -2 -4 -35 -4 -73 l0 -68 64 0 c56 0 67 3 80 22 20 28
20 67 1 95 -12 17 -27 22 -76 25 -33 1 -63 1 -65 -1z"/>
</g>
</svg>
